<svg width="145" height="43" viewBox="0 0 145 43" fill="none" xmlns="http://www.w3.org/2000/svg">
<g clip-path="url(#clip0_7039_297957)">
<path fill-rule="evenodd" clip-rule="evenodd" d="M139.672 0.553711H6.31845C3.33848 0.553711 0.99707 2.86522 0.99707 5.80713V37.0124C0.99707 39.8493 3.44491 42.2659 6.31845 42.2659H139.672C142.652 42.2659 144.994 39.9543 144.994 37.0124V5.80713C145.1 2.86522 142.652 0.553711 139.672 0.553711Z" fill="#F6F8FB"/>
<path fill-rule="evenodd" clip-rule="evenodd" d="M31.7547 21.6735C31.7547 19.5722 32.9255 17.6809 34.8411 16.5252C33.564 14.9492 31.6483 14.0035 29.6262 13.8985C27.4976 13.6883 25.3691 15.1593 24.3048 15.1593C23.1341 15.1593 21.4313 13.8985 19.622 14.0035C17.1742 14.1086 15.0456 15.3694 13.8749 17.3657C11.4271 21.4634 13.2363 27.5574 15.5778 30.9196C16.7485 32.6007 18.132 34.3868 19.9413 34.2817C21.7506 34.1767 22.3891 33.2311 24.5177 33.2311C26.6462 33.2311 27.2848 34.2817 29.0941 34.2817C31.0098 34.2817 32.1805 32.6006 33.3512 31.0246C34.2026 29.8689 34.8411 28.6081 35.2669 27.2422C33.2447 26.1915 31.7547 24.0901 31.7547 21.6735Z" fill="#14171A"/>
<path fill-rule="evenodd" clip-rule="evenodd" d="M28.2422 11.6916C29.3064 10.5358 29.8386 8.95981 29.6257 7.38379C28.0293 7.59393 26.5393 8.22434 25.475 9.38009C24.4108 10.5358 23.8786 12.0068 23.985 13.4778C25.6879 13.6879 27.1779 12.9524 28.2422 11.6916Z" fill="#14171A"/>
<path d="M49.527 9.37753C50.3784 9.37753 51.2298 9.69273 51.762 10.2181C52.2941 10.7434 52.6134 11.689 52.5069 12.4245C52.5069 14.4208 51.4427 15.5766 49.527 15.5766H47.292V9.27246H49.527V9.37753ZM48.2498 14.8411H49.4205C50.0591 14.8411 50.5912 14.6309 51.017 14.2107C51.4427 13.7904 51.6555 13.16 51.5491 12.6346C51.6555 12.0042 51.4427 11.4789 51.017 11.0586C50.5912 10.6383 50.0591 10.2181 49.4205 10.3231H48.2498V14.8411Z" fill="#14171A"/>
<path d="M53.6794 13.2652C53.573 12.4247 53.9987 11.5841 54.7437 11.1638C55.4887 10.7436 56.4465 10.7436 57.0851 11.1638C57.7236 11.5841 58.2558 12.4247 58.1493 13.2652C58.2558 14.1058 57.8301 14.9463 57.0851 15.3666C56.3401 15.7868 55.3822 15.7868 54.6372 15.3666C53.9987 14.9463 53.573 14.2108 53.6794 13.2652ZM57.1915 13.2652C57.1915 12.2145 56.7658 11.6892 55.9144 11.6892C55.0629 11.6892 54.6372 12.3196 54.6372 13.2652C54.6372 14.3159 55.0629 14.9463 55.9144 14.9463C56.7658 14.9463 57.1915 14.3159 57.1915 13.2652Z" fill="#14171A"/>
<path fill-rule="evenodd" clip-rule="evenodd" d="M64.2169 15.6822H63.259L62.1948 12.2149L61.1305 15.6822H60.1726L58.8955 10.9541H59.8534L60.7048 14.5264L61.7691 10.9541H62.6205L63.5783 14.5264H63.6847L64.5362 10.9541H65.494L64.2169 15.6822Z" fill="#14171A"/>
<path fill-rule="evenodd" clip-rule="evenodd" d="M66.6631 10.9537H67.6209V11.6892H67.7274C67.9402 11.1638 68.5788 10.8486 69.1109 10.8486C69.5366 10.8486 70.0688 10.9537 70.3881 11.374C70.7073 11.6892 70.8138 12.2145 70.8138 12.6348V15.6818H69.8559V12.8449C69.8559 12.1095 69.5366 11.6892 68.7916 11.6892C68.4724 11.6892 68.1531 11.7942 67.9402 12.0044C67.7274 12.2145 67.6209 12.5297 67.6209 12.8449V15.5767H66.6631V10.9537Z" fill="#14171A"/>
<path fill-rule="evenodd" clip-rule="evenodd" d="M72.1982 9.06348H73.1561V15.6828H72.1982V9.06348Z" fill="#14171A"/>
<path d="M74.4313 13.2652C74.3249 12.4247 74.7506 11.5841 75.4956 11.1638C76.2406 10.7436 77.1985 10.7436 77.837 11.1638C78.582 11.5841 79.0077 12.4247 78.9013 13.2652C79.0077 14.1058 78.582 14.9463 77.837 15.3666C77.092 15.7868 76.1342 15.7868 75.3892 15.3666C74.7506 14.9463 74.3249 14.2108 74.4313 13.2652ZM78.0499 13.2652C78.0499 12.2145 77.6242 11.6892 76.7727 11.6892C75.9213 11.6892 75.4956 12.3196 75.4956 13.2652C75.4956 14.3159 75.9213 14.9463 76.7727 14.9463C77.5177 14.9463 78.0499 14.3159 78.0499 13.2652Z" fill="#14171A"/>
<path d="M79.9658 14.3159C79.9658 13.4753 80.6044 12.95 81.7751 12.95L83.0522 12.8449V12.4247C83.0522 11.8993 82.733 11.6892 82.0944 11.6892C81.5622 11.6892 81.243 11.8993 81.1365 12.2145H80.1787C80.2851 11.374 81.0301 10.8486 82.0944 10.8486C83.2651 10.8486 84.0101 11.479 84.0101 12.4247V15.6818H83.0522V15.0514H82.9458C82.6265 15.5767 82.0944 15.7868 81.4558 15.7868C81.0301 15.7868 80.6044 15.6818 80.3915 15.4716C80.1787 15.1564 79.9658 14.7362 79.9658 14.3159ZM83.0522 13.8956V13.5804L81.8815 13.6855C81.243 13.6855 80.9237 14.0007 80.9237 14.3159C80.9237 14.7362 81.3494 14.9463 81.7751 14.9463C82.0944 14.9463 82.4137 14.8412 82.6265 14.7362C82.8394 14.526 83.0522 14.2108 83.0522 13.8956Z" fill="#14171A"/>
<path d="M85.1826 13.2662C85.1826 11.7953 85.9276 10.8496 87.2048 10.8496C87.8433 10.8496 88.3755 11.1648 88.6947 11.6902H88.8012V9.06348H89.759V15.6828H88.8012V14.9473H88.6947C88.3755 15.4727 87.8433 15.7879 87.2048 15.7879C86.034 15.7879 85.1826 14.8422 85.1826 13.2662ZM86.2469 13.2662C86.2469 14.3169 86.779 14.8422 87.524 14.8422C88.269 14.8422 88.8012 14.2118 88.8012 13.2662C88.8012 12.3206 88.269 11.6902 87.524 11.6902C86.6726 11.6902 86.2469 12.3206 86.2469 13.2662Z" fill="#14171A"/>
<path d="M93.5875 13.2652C93.481 12.4247 93.9068 11.5841 94.6518 11.1638C95.3967 10.7436 96.3546 10.7436 96.9932 11.1638C97.7382 11.5841 98.1639 12.4247 98.0574 13.2652C98.1639 14.1058 97.7382 14.9463 96.9932 15.3666C96.2482 15.7868 95.2903 15.7868 94.5453 15.3666C93.9068 14.9463 93.5875 14.2108 93.5875 13.2652ZM97.206 13.2652C97.206 12.2145 96.7803 11.6892 95.9289 11.6892C95.0775 11.6892 94.6518 12.3196 94.6518 13.2652C94.6518 14.3159 95.0775 14.9463 95.9289 14.9463C96.6739 14.9463 97.206 14.3159 97.206 13.2652Z" fill="#14171A"/>
<path fill-rule="evenodd" clip-rule="evenodd" d="M99.4404 10.9537H100.398V11.6892H100.505C100.718 11.1638 101.356 10.8486 101.888 10.8486C102.314 10.8486 102.846 10.9537 103.165 11.374C103.485 11.6892 103.591 12.2145 103.591 12.6348V15.6818H102.633V12.8449C102.633 12.1095 102.314 11.6892 101.569 11.6892C101.25 11.6892 100.93 11.7942 100.718 12.0044C100.505 12.2145 100.398 12.5297 100.398 12.8449V15.5767H99.4404V10.9537Z" fill="#14171A"/>
<path fill-rule="evenodd" clip-rule="evenodd" d="M108.808 9.7998V10.9556H109.873V11.7961H108.808V14.2127C108.808 14.738 109.021 14.9482 109.447 14.9482C109.553 14.9482 109.66 14.9482 109.766 14.9482V15.6836C109.553 15.6836 109.447 15.6836 109.234 15.6836C108.17 15.6836 107.744 15.3684 107.744 14.4228V11.7961H106.999V10.9556H107.744V9.7998H108.808Z" fill="#14171A"/>
<path fill-rule="evenodd" clip-rule="evenodd" d="M111.149 9.06348H112.107V11.6902H112.214C112.427 11.1648 113.065 10.7446 113.704 10.8496C114.129 10.8496 114.662 10.9547 114.981 11.375C115.3 11.6902 115.407 12.2155 115.407 12.6358V15.6828H114.449V12.8459C114.449 12.1105 114.129 11.6902 113.384 11.6902C113.065 11.6902 112.746 11.7953 112.533 12.0054C112.32 12.2155 112.214 12.5307 112.214 12.8459V15.5777H111.256L111.149 9.06348Z" fill="#14171A"/>
<path d="M120.835 14.421C120.622 15.2615 119.664 15.8919 118.706 15.7868C118.068 15.7868 117.429 15.5767 117.004 15.0514C116.578 14.6311 116.365 14.0007 116.471 13.3703C116.365 12.7399 116.578 12.1095 117.004 11.5841C117.429 11.0588 118.068 10.8486 118.706 10.8486C120.09 10.8486 120.835 11.7942 120.835 13.2652V13.5804H117.429C117.429 13.8956 117.536 14.3159 117.749 14.526C117.961 14.7362 118.387 14.9463 118.706 14.9463C119.132 15.0514 119.664 14.7362 119.877 14.421H120.835ZM117.429 12.8449H119.877C119.877 12.5297 119.771 12.2145 119.558 12.0044C119.345 11.7942 119.026 11.6892 118.706 11.6892C118.387 11.6892 118.068 11.7942 117.855 12.0044C117.642 12.2145 117.429 12.5297 117.429 12.8449Z" fill="#14171A"/>
<path d="M55.3805 28.711H50.3784L49.2077 32.2834H47.0791L51.7619 19.2549H53.9969L58.7861 32.2834H56.6576L55.3805 28.711ZM50.9105 27.135H54.9547L52.9326 21.3562H52.8262L50.9105 27.135Z" fill="#14171A"/>
<path d="M69.1079 27.5549C69.1079 30.4968 67.5114 32.388 65.0636 32.388C63.7865 32.4931 62.6158 31.7576 62.0836 30.7069V35.435H60.0615V22.8268H61.9772V24.4028C62.6158 23.3521 63.7865 22.7217 65.0636 22.7217C67.405 22.6167 69.1079 24.613 69.1079 27.5549ZM66.9793 27.5549C66.9793 25.6636 66.0215 24.4028 64.425 24.4028C62.9351 24.4028 61.8708 25.6636 61.8708 27.5549C61.8708 29.4461 62.9351 30.7069 64.425 30.7069C66.0215 30.7069 66.9793 29.4461 66.9793 27.5549Z" fill="#14171A"/>
<path d="M79.645 27.5549C79.645 30.4968 78.0486 32.388 75.6007 32.388C74.3236 32.4931 73.1529 31.7576 72.6208 30.7069V35.435H70.5986V22.8268H72.5143V24.4028C73.1529 23.3521 74.3236 22.7217 75.6007 22.7217C78.0486 22.6167 79.645 24.613 79.645 27.5549ZM77.6229 27.5549C77.6229 25.6636 76.665 24.4028 75.0686 24.4028C73.5786 24.4028 72.5143 25.6636 72.5143 27.5549C72.5143 29.4461 73.5786 30.7069 75.0686 30.7069C76.665 30.7069 77.6229 29.4461 77.6229 27.5549Z" fill="#14171A"/>
<path fill-rule="evenodd" clip-rule="evenodd" d="M86.6696 28.6052C86.7761 29.866 88.0532 30.7065 89.8625 30.7065C91.5653 30.7065 92.736 29.866 92.736 28.7102C92.736 27.6596 91.991 27.1342 90.2882 26.7139L88.5853 26.2937C86.1375 25.6633 85.0732 24.6126 85.0732 22.8264C85.0732 20.62 87.0953 19.0439 89.8625 19.0439C92.6296 19.0439 94.5453 20.62 94.6517 22.8264H92.6296C92.5231 21.5656 91.4589 20.725 89.8625 20.725C88.266 20.725 87.2018 21.5656 87.2018 22.7213C87.2018 23.667 87.9468 24.1923 89.6496 24.6126L91.1396 24.9278C93.8003 25.5582 94.971 26.6089 94.971 28.5001C94.971 30.9167 92.9489 32.4927 89.8625 32.4927C86.8825 32.4927 84.9668 31.0217 84.8604 28.6052H86.6696Z" fill="#14171A"/>
<path fill-rule="evenodd" clip-rule="evenodd" d="M99.0151 20.5146V22.7211H100.824V24.2971H99.0151V29.5505C99.0151 30.3911 99.3344 30.7063 100.186 30.7063C100.399 30.7063 100.612 30.7063 100.824 30.7063V32.2823C100.505 32.3874 100.079 32.3874 99.7601 32.3874C97.8444 32.3874 97.0994 31.6519 97.0994 29.8657V24.2971H95.7158V22.7211H97.0994V20.5146H99.0151Z" fill="#14171A"/>
<path d="M101.995 27.5548C101.995 24.6129 103.804 22.7217 106.571 22.7217C109.339 22.7217 111.148 24.6129 111.148 27.5548C111.148 30.6018 109.339 32.388 106.571 32.388C103.698 32.388 101.995 30.4967 101.995 27.5548ZM109.126 27.5548C109.126 25.4535 108.168 24.2977 106.571 24.2977C104.975 24.2977 104.017 25.4535 104.017 27.5548C104.017 29.6562 104.975 30.8119 106.571 30.8119C108.168 30.8119 109.126 29.5511 109.126 27.5548Z" fill="#14171A"/>
<path fill-rule="evenodd" clip-rule="evenodd" d="M112.744 22.7219H114.66V24.403C114.873 23.3523 115.937 22.6168 117.001 22.7219C117.214 22.7219 117.427 22.7219 117.64 22.827V24.6131C117.32 24.5081 117.108 24.403 116.788 24.403C116.256 24.403 115.618 24.6131 115.298 25.0334C114.979 25.4537 114.66 26.0841 114.66 26.6094V32.2831H112.638L112.744 22.7219Z" fill="#14171A"/>
<path d="M126.794 29.4457C126.582 31.1268 124.772 32.3876 122.644 32.3876C119.877 32.3876 118.067 30.4963 118.067 27.5544C118.067 24.6125 119.77 22.6162 122.537 22.6162C125.198 22.6162 126.901 24.4024 126.901 27.3443V27.9747H120.09V28.0798C119.983 28.8152 120.302 29.4457 120.728 29.971C121.26 30.4963 121.899 30.8115 122.644 30.7065C123.602 30.8115 124.559 30.2862 124.879 29.3406L126.794 29.4457ZM120.09 26.6088H124.879C124.879 25.9784 124.666 25.348 124.24 24.9277C123.814 24.5074 123.176 24.1922 122.537 24.1922C121.899 24.1922 121.26 24.4024 120.835 24.9277C120.302 25.348 120.09 25.9784 120.09 26.6088Z" fill="#14171A"/>
</g>
<defs>
<clipPath id="clip0_7039_297957">
<rect width="144" height="42" fill="white" transform="translate(0.99707 0.553711)"/>
</clipPath>
</defs>
</svg>
