<svg width="48" height="48" viewBox="0 0 48 48" fill="none" xmlns="http://www.w3.org/2000/svg">
<path d="M16.6777 20.9669C8.57142 20.9669 2 27.7491 2 36.1154C2 37.6982 3.24325 38.9814 4.77686 38.9814H31.2231C32.7568 38.9814 34 37.6982 34 36.1154C34 27.7491 27.4286 20.9669 19.3223 20.9669H16.6777Z" fill="#9EB3EE"/>
<path d="M18.1494 1.00085C13.455 1.00085 9.64941 4.8095 9.64941 9.5077C9.64941 14.2059 13.455 18.0145 18.1494 18.0145C22.8438 18.0145 26.6494 14.2059 26.6494 9.5077C26.6494 4.8095 22.8438 1.00085 18.1494 1.00085Z" fill="#9EB3EE"/>
<path d="M46 34.5278C46 41.437 40.4036 47.0379 33.5 47.0379C26.5964 47.0379 21 41.437 21 34.5278C21 27.6187 26.5964 22.0178 33.5 22.0178C40.4036 22.0178 46 27.6187 46 34.5278Z" fill="#1E4DD8"/>
<path d="M39.9714 31.5423C40.4759 31.0059 40.45 30.1621 39.9135 29.6576C39.3771 29.1531 38.5333 29.179 38.0288 29.7155L39.9714 31.5423ZM28.9432 33.8148C28.4227 33.2939 27.5785 33.2936 27.0576 33.8141C26.5367 34.3346 26.5363 35.1788 27.0568 35.6997L28.9432 33.8148ZM31.951 38.1247L32.9223 39.0381L31.951 38.1247ZM31.3734 38.1334L32.3166 37.191L31.3734 38.1334ZM38.0288 29.7155L30.9797 37.2112L32.9223 39.0381L39.9714 31.5423L38.0288 29.7155ZM32.3166 37.191L28.9432 33.8148L27.0568 35.6997L30.4302 39.0759L32.3166 37.191ZM30.9797 37.2112C31.3397 36.8284 31.9451 36.8192 32.3166 37.191L30.4302 39.0759C31.1227 39.7689 32.2511 39.7518 32.9223 39.0381L30.9797 37.2112Z" fill="white"/>
</svg>
