<svg width="40" height="40" viewBox="0 0 40 40" fill="none" xmlns="http://www.w3.org/2000/svg">
<path fill-rule="evenodd" clip-rule="evenodd" d="M11.4969 4.72209C11.5022 4.72198 11.5075 4.72192 11.5128 4.72192H28.4866C28.4919 4.72192 28.4972 4.72198 28.5025 4.72209H11.4969ZM10.6932 6.24986H29.3062L29.7717 12.8573C29.8695 14.2459 29.2041 15.5777 28.0351 16.3334L23.3557 19.3582C22.8901 19.6591 22.8901 20.3403 23.3557 20.6412L28.0351 23.666C29.2041 24.4217 29.8695 25.7535 29.7717 27.1421L29.3061 33.75H10.6933L10.2277 27.1421C10.1299 25.7535 10.7953 24.4217 11.9643 23.666L16.6437 20.6412C17.1093 20.3403 17.1093 19.6591 16.6437 19.3582L11.9643 16.3334C10.7953 15.5777 10.1299 14.2459 10.2277 12.8573L10.6932 6.24986Z" fill="#C9D4F6"/>
<rect x="8.5415" y="35.2773" width="22.9167" height="3.05556" rx="0.763889" fill="#C9D4F6"/>
<rect x="8.5415" y="1.66626" width="22.9167" height="3.05556" rx="0.763889" fill="#C9D4F6"/>
<path fill-rule="evenodd" clip-rule="evenodd" d="M22.2262 16.9437L26.4785 14.0255C26.7265 13.8553 26.8747 13.5739 26.8747 13.2731C26.8747 12.7691 26.4661 12.3606 25.9622 12.3606L14.037 12.3606C13.533 12.3606 13.1245 12.7692 13.1246 13.2732C13.1246 13.5739 13.2728 13.8553 13.5207 14.0254L17.7732 16.9437H17.7081C18.6699 17.665 19.2359 18.7971 19.2359 19.9993C19.2359 21.2015 18.6699 22.3335 17.7081 23.0548H17.7736L14.1195 25.5626C13.4967 25.99 13.1245 26.6968 13.1245 27.4521L13.1245 30.3119C13.1245 30.7338 13.4665 31.0758 13.8884 31.0758L26.1109 31.0758C26.5328 31.0758 26.8748 30.7338 26.8747 30.3119L26.8746 27.452C26.8745 26.6967 26.5024 25.99 25.8796 25.5626L22.2254 23.0548H22.2915C21.3297 22.3335 20.7637 21.2015 20.7637 19.9993C20.7637 18.7971 21.3297 17.665 22.2915 16.9437H22.2262Z" fill="#496FDF"/>
</svg>
