<svg width="40" height="40" viewBox="0 0 40 40" fill="none" xmlns="http://www.w3.org/2000/svg">
<path d="M34.7131 19.3818C36.9217 17.5475 38.3281 14.7807 38.3281 11.6853C38.3281 6.16246 33.8509 1.6853 28.3281 1.6853C25.2332 1.6853 22.4666 3.09128 20.6323 5.29935C27.7817 6.59409 33.4192 12.2321 34.7131 19.3818Z" fill="#C9D4F6"/>
<path fill-rule="evenodd" clip-rule="evenodd" d="M17.212 6.95435C8.62644 6.95435 1.6665 13.9143 1.6665 22.4998C1.6665 31.0853 8.62643 38.0453 17.2119 38.0453H17.7877C26.3732 38.0453 33.3332 31.0853 33.3332 22.4998C33.3332 13.9143 26.3732 6.95435 17.7877 6.95435H17.212ZM17.4996 34.2818C24.1594 34.2818 29.5212 28.9868 29.5212 22.5001C29.5212 16.0135 24.1594 10.7184 17.4996 10.7184C10.8399 10.7184 5.47802 16.0135 5.47802 22.5001C5.47802 28.9868 10.8399 34.2818 17.4996 34.2818ZM17.4996 35.4547C24.7867 35.4547 30.6941 29.6547 30.6941 22.5001C30.6941 15.3455 24.7867 9.54557 17.4996 9.54557C10.2125 9.54557 4.30518 15.3455 4.30518 22.5001C4.30518 29.6547 10.2125 35.4547 17.4996 35.4547ZM24.7028 20.8439C25.0351 20.6095 24.8692 20.0868 24.4626 20.0868H19.8325C19.6075 20.0868 19.4081 19.9418 19.3387 19.7277L17.9027 15.297C17.7784 14.9133 17.2357 14.9126 17.1103 15.296L15.6612 19.7287C15.5914 19.9422 15.392 20.0866 15.1673 20.0864L10.5405 20.082C10.1335 20.0816 9.96744 20.605 10.3002 20.8393L14.033 23.4682C14.2198 23.5998 14.2986 23.8382 14.227 24.0553L12.7897 28.4108C12.6633 28.7937 13.1004 29.1149 13.4281 28.88L17.2055 26.1723C17.3864 26.0426 17.6298 26.0427 17.8106 26.1724L21.583 28.8799C21.9106 29.1149 22.3478 28.7941 22.2218 28.4111L20.7887 24.0547C20.7173 23.8379 20.796 23.6 20.9825 23.4684L24.7028 20.8439Z" fill="#496FDF"/>
</svg>
