<svg width="32" height="32" viewBox="0 0 32 32" fill="none" xmlns="http://www.w3.org/2000/svg">
<g clip-path="url(#clip0_5725_167302)">
<rect x="0.941162" y="0.941162" width="30.1176" height="30.1176" rx="15.0588" fill="#FFB548"/>
<path opacity="0.25" d="M36.0784 9.29827H21.4789C21.0408 9.29827 20.6527 9.01573 20.5181 8.59882L16.0207 -5.33325L11.4833 8.60057C11.3478 9.01657 10.9598 9.29798 10.5223 9.29756L-4.07842 9.28359L7.74417 17.643C8.10625 17.899 8.25888 18.3614 8.12041 18.7826L3.60207 32.5289L15.4306 24.0164C15.783 23.7627 16.2582 23.7628 16.6105 24.0167L28.4244 32.5289L23.9198 18.7816C23.7819 18.3608 23.9344 17.8992 24.2957 17.6433L36.0784 9.29827Z" fill="url(#paint0_linear_5725_167302)"/>
<path d="M23.5866 13.6626H17.8605C17.6903 13.6626 17.5397 13.5525 17.4881 13.3903L15.723 7.84326L13.9423 13.391C13.8903 13.5528 13.7397 13.6625 13.5698 13.6623L7.84324 13.6568L12.4851 16.9865C12.6233 17.0856 12.6815 17.2627 12.6291 17.4245L10.8543 22.9021L15.4924 19.5159C15.6298 19.4156 15.8162 19.4156 15.9535 19.516L20.5858 22.9021L18.8165 17.4241C18.7643 17.2625 18.8224 17.0857 18.9604 16.9866L23.5866 13.6626Z" fill="white"/>
<path d="M8.41097 8.5336C8.68156 8.33108 8.73675 7.94755 8.53423 7.67696C8.33171 7.40637 7.94818 7.35118 7.67759 7.5537C2.11297 11.7185 2.02941 20.034 7.50707 24.3119L7.6676 24.4373C7.93398 24.6453 8.31856 24.598 8.5266 24.3317C8.73463 24.0653 8.68733 23.6807 8.42096 23.4727L8.26042 23.3473C3.41815 19.5656 3.49235 12.2149 8.41097 8.5336Z" fill="url(#paint1_linear_5725_167302)"/>
<path d="M24.3223 7.5537C24.0517 7.35118 23.6682 7.40637 23.4657 7.67696C23.2631 7.94755 23.3183 8.33108 23.5889 8.5336C28.5075 12.2149 28.5817 19.5656 23.7395 23.3473L23.5789 23.4727C23.3126 23.6807 23.2653 24.0653 23.4733 24.3317C23.6813 24.598 24.0659 24.6453 24.3323 24.4373L24.4928 24.3119C29.9705 20.034 29.8869 11.7185 24.3223 7.5537Z" fill="url(#paint2_linear_5725_167302)"/>
</g>
<defs>
<linearGradient id="paint0_linear_5725_167302" x1="8.25594" y1="2.30025" x2="24.9645" y2="26.6476" gradientUnits="userSpaceOnUse">
<stop offset="0.239583" stop-color="white"/>
<stop offset="1" stop-color="white" stop-opacity="0"/>
</linearGradient>
<linearGradient id="paint1_linear_5725_167302" x1="38.1711" y1="12.045" x2="38.1148" y2="24.5754" gradientUnits="userSpaceOnUse">
<stop stop-color="#FFF0DA"/>
<stop offset="0.803114" stop-color="white" stop-opacity="0"/>
</linearGradient>
<linearGradient id="paint2_linear_5725_167302" x1="38.1711" y1="12.045" x2="38.1148" y2="24.5754" gradientUnits="userSpaceOnUse">
<stop stop-color="#FFF0DA"/>
<stop offset="0.803114" stop-color="white" stop-opacity="0"/>
</linearGradient>
<clipPath id="clip0_5725_167302">
<rect x="0.941162" y="0.941162" width="30.1176" height="30.1176" rx="15.0588" fill="white"/>
</clipPath>
</defs>
</svg>
