<svg width="145" height="43" viewBox="0 0 145 43" fill="none" xmlns="http://www.w3.org/2000/svg">
<g clip-path="url(#clip0_7039_297958)">
<path fill-rule="evenodd" clip-rule="evenodd" d="M139.672 0.553711H6.31845C3.33848 0.553711 0.99707 2.86521 0.99707 5.80713V37.0124C0.99707 39.8493 3.44491 42.2659 6.31845 42.2659H139.672C142.652 42.2659 144.994 39.9543 144.994 37.0124V5.80713C145.1 2.86521 142.652 0.553711 139.672 0.553711Z" fill="#F6F8FB"/>
<path fill-rule="evenodd" clip-rule="evenodd" d="M50.9634 11.2087C50.9634 12.0687 50.6444 12.8212 50.2189 13.3587C49.5808 13.8962 48.7299 14.2187 47.7727 14.2187C46.9218 14.2187 46.071 13.8962 45.4328 13.2512C44.7947 12.6062 44.4756 11.8537 44.4756 10.8862C44.4756 9.91871 44.7947 9.16621 45.4328 8.52121C46.071 7.87621 46.8155 7.55371 47.7727 7.55371C48.1981 7.55371 48.6236 7.66121 49.049 7.87621C49.5808 7.98371 49.8999 8.19871 50.1126 8.52121L49.5808 9.05871C49.1553 8.62871 48.5172 8.30621 47.7727 8.30621C47.1345 8.30621 46.4964 8.62871 46.071 9.05871C45.5392 9.48871 45.3265 10.1337 45.3265 10.8862C45.3265 11.6387 45.5392 12.2837 46.071 12.7137C46.6028 13.1437 47.1345 13.4662 47.7727 13.4662C48.5172 13.4662 49.049 13.2512 49.5808 12.7137C49.8999 12.3912 50.1126 11.9612 50.1126 11.4237H47.7727V10.6712H50.8571C50.9634 10.8862 50.9634 10.9937 50.9634 11.2087Z" fill="#14171A" stroke="#14171A" stroke-width="0.625"/>
<path fill-rule="evenodd" clip-rule="evenodd" d="M55.8192 8.52113H52.9475V10.5636H55.6065V11.3161H52.9475V13.3586H55.8192V14.1111H52.0967V7.66113L55.8192 7.66113V8.52113Z" fill="#14171A" stroke="#14171A" stroke-width="0.625"/>
<path fill-rule="evenodd" clip-rule="evenodd" d="M59.3416 14.1111H58.4907V8.52113H56.6826V7.66113L61.1497 7.66113V8.52113H59.3416V14.1111Z" fill="#14171A" stroke="#14171A" stroke-width="0.625"/>
<path fill-rule="evenodd" clip-rule="evenodd" d="M64.3037 14.1111V7.66113H65.1546V14.1111H64.3037Z" fill="#14171A" stroke="#14171A" stroke-width="0.625"/>
<path fill-rule="evenodd" clip-rule="evenodd" d="M68.7752 14.1111H67.9243V8.52113H66.1162V7.66113L70.5833 7.66113V8.52113H68.7752V14.1111Z" fill="#14171A" stroke="#14171A" stroke-width="0.625"/>
<path d="M78.8431 13.2512C78.2049 13.8962 77.4604 14.2187 76.5032 14.2187C75.5459 14.2187 74.8014 13.8962 74.1633 13.2512C73.5251 12.6062 73.2061 11.8537 73.2061 10.8862C73.2061 9.91871 73.5251 9.16621 74.1633 8.52121C74.8014 7.87621 75.5459 7.55371 76.5032 7.55371C77.4604 7.55371 78.2049 7.87621 78.8431 8.52121C79.4812 9.16621 79.8003 9.91871 79.8003 10.8862C79.8003 11.8537 79.4812 12.6062 78.8431 13.2512ZM74.8014 12.7137C75.2269 13.1437 75.865 13.4662 76.5032 13.4662C77.1413 13.4662 77.7795 13.2512 78.2049 12.7137C78.7367 12.2837 78.9494 11.6387 78.9494 10.8862C78.9494 10.1337 78.7367 9.59621 78.3113 9.05871C77.8858 8.62871 77.2477 8.30621 76.6095 8.30621C75.865 8.30621 75.2269 8.62871 74.8014 9.05871C74.2696 9.59621 74.0569 10.1337 74.0569 10.8862C74.0569 11.6387 74.2696 12.2837 74.8014 12.7137Z" fill="#14171A" stroke="#14171A" stroke-width="0.625"/>
<path fill-rule="evenodd" clip-rule="evenodd" d="M80.9893 14.1111V7.66113H81.9465L85.0309 12.7136H85.1372L85.0309 11.4236V7.66113H85.8817V14.1111H85.0309L81.7338 8.84363V10.1336V14.1111H80.9893Z" fill="#14171A" stroke="#14171A" stroke-width="0.625"/>
<path d="M73.0087 23.4035C70.5625 23.4035 68.4353 25.3385 68.4353 27.9185C68.4353 30.4985 70.4561 32.4335 73.0087 32.4335C75.5613 32.4335 77.5822 30.4985 77.5822 27.9185C77.5822 25.3385 75.5613 23.4035 73.0087 23.4035ZM73.0087 30.7135C71.6261 30.7135 70.4562 29.531 70.4562 27.9185C70.4562 26.306 71.6261 25.1235 73.0087 25.1235C74.3914 25.1235 75.5614 26.1985 75.5614 27.9185C75.5614 29.531 74.3914 30.7135 73.0087 30.7135ZM63.1174 23.4035C60.5648 23.4035 58.544 25.3385 58.544 27.9185C58.544 30.4985 60.5648 32.4335 63.1174 32.4335C65.67 32.4335 67.6908 30.4985 67.6908 27.9185C67.6908 25.3385 65.5637 23.4035 63.1174 23.4035ZM63.1174 30.7135C61.7348 30.7135 60.5648 29.531 60.5648 27.9185C60.5648 26.306 61.7348 25.1235 63.1174 25.1235C64.5001 25.1235 65.67 26.1985 65.67 27.9185C65.67 29.531 64.5001 30.7135 63.1174 30.7135ZM51.3116 24.801V26.736H55.8851C55.7787 27.811 55.3533 28.5635 54.8215 29.101C54.1833 29.746 53.1197 30.4985 51.3116 30.4985C48.44 30.4985 46.3128 28.241 46.3128 25.3385C46.3128 22.436 48.5463 20.1785 51.3116 20.1785C52.8007 20.1785 53.9706 20.8235 54.8215 21.576L56.2041 20.1785C55.0342 19.1035 53.5452 18.2435 51.418 18.2435C47.4827 18.2435 44.292 21.361 44.292 25.231C44.292 29.101 47.5891 32.2185 51.418 32.2185C53.5452 32.2185 55.1405 31.5735 56.3105 30.2835C57.5868 28.9935 58.0122 27.2735 58.0122 25.7685C58.0122 25.3385 58.0122 24.9085 57.9059 24.586H51.3116V24.801ZM99.5983 26.306C99.1729 25.3385 98.1093 23.4035 95.6631 23.4035C93.3232 23.4035 91.4087 25.231 91.4087 27.9185C91.4087 30.4985 93.3232 32.4335 95.8758 32.4335C98.003 32.4335 99.1729 31.1435 99.7047 30.391L98.1093 29.316C97.5775 30.0685 96.9394 30.606 95.8758 30.606C94.9186 30.606 94.1741 30.176 93.6423 29.2085L99.7047 26.736L99.5983 26.306ZM93.4296 27.811C93.4296 26.091 94.8122 25.1235 95.7694 25.1235C96.5139 25.1235 97.2585 25.5535 97.4712 26.091L93.4296 27.811ZM88.4307 32.2185H90.4515V18.8885H88.4307V32.2185ZM85.24 24.4785C84.7082 23.941 83.8573 23.511 82.7937 23.511C80.5602 23.511 78.433 25.5535 78.433 28.026C78.433 30.606 80.5602 32.541 82.7937 32.541C83.8573 32.541 84.7082 32.111 85.1336 31.466H85.24V32.111C85.24 33.831 84.2827 34.7985 82.7937 34.7985C81.6238 34.7985 80.7729 33.9385 80.5602 33.186L78.8585 33.9385C79.3903 35.121 80.6665 36.626 82.9001 36.626C85.24 36.626 87.2608 35.2285 87.2608 31.896V23.726H85.3463V24.4785H85.24ZM82.9001 30.7135C81.5174 30.7135 80.3475 29.531 80.3475 28.026C80.3475 26.4135 81.5174 25.231 82.9001 25.231C84.2827 25.231 85.3463 26.4135 85.3463 28.026C85.3463 29.531 84.2827 30.7135 82.9001 30.7135ZM108.958 18.8885H104.172V32.2185H106.193V27.166H108.958C111.191 27.166 113.319 25.5535 113.319 23.081C113.319 20.501 111.085 18.8885 108.958 18.8885ZM108.958 25.3385H106.086V20.8235H108.958C110.447 20.8235 111.298 22.006 111.298 23.081C111.298 24.0485 110.447 25.3385 108.958 25.3385ZM121.295 23.4035C119.806 23.4035 118.317 24.0485 117.786 25.446L119.594 26.1985C120.019 25.446 120.657 25.231 121.402 25.231C122.465 25.231 123.529 25.876 123.529 26.951V27.0585C123.21 26.8435 122.359 26.521 121.402 26.521C119.487 26.521 117.573 27.596 117.573 29.531C117.573 31.3585 119.168 32.4335 120.87 32.4335C122.253 32.4335 122.997 31.7885 123.423 31.1435H123.529V32.2185H125.443V27.0585C125.337 24.6935 123.529 23.4035 121.295 23.4035ZM121.083 30.7135C120.445 30.7135 119.487 30.391 119.487 29.6385C119.487 28.5635 120.657 28.241 121.615 28.241C122.465 28.241 122.891 28.456 123.423 28.671C123.21 29.8535 122.146 30.7135 121.083 30.7135ZM132.357 23.726L130.123 29.531H130.017L127.677 23.726H125.55L129.06 31.7885L126.932 36.196H129.06L134.484 23.6185H132.357V23.726ZM114.382 32.2185H116.403V18.8885H114.382V32.2185Z" fill="#14171A"/>
<path d="M26.6006 20.4053L29.8818 17.124L14.5146 8.26465L26.6006 20.4053ZM11.3975 7.55371C10.6865 7.93652 10.1943 8.64746 10.1943 9.52246L10.1943 33.6396C10.1943 34.5146 10.6865 35.2256 11.3975 35.5537L25.3975 21.5537L11.3975 7.55371ZM34.6396 19.9131L31.4131 18.0537L27.8037 21.5537L31.4131 25.1084L34.6943 23.249C35.6787 22.4834 35.6787 20.6787 34.6396 19.9131ZM14.5146 34.8428L29.8818 26.0381L26.6006 22.7568L14.5146 34.8428Z" fill="#14171A"/>
</g>
<defs>
<clipPath id="clip0_7039_297958">
<rect width="144" height="42" fill="white" transform="translate(0.99707 0.553711)"/>
</clipPath>
</defs>
</svg>
