<svg width="18" height="24" viewBox="0 0 18 24" fill="none" xmlns="http://www.w3.org/2000/svg">
<path d="M16.9582 9.84441C17.2911 7.53273 15.5967 6.29003 13.2799 5.46102L14.0314 2.32957L12.1964 1.85453L11.4647 4.90346C10.9824 4.77859 10.4869 4.66078 9.99457 4.54406L10.7315 1.47504L8.89756 1L8.14549 4.13037C7.74619 4.03591 7.35421 3.94253 6.97373 3.84426L6.97582 3.83449L4.44522 3.17812L3.95708 5.214C3.95708 5.214 5.31855 5.53811 5.2898 5.5582C6.03299 5.75093 6.16731 6.2618 6.14483 6.66681L5.28875 10.2342L5.28562 10.2478L4.08564 15.2452C3.99471 15.4797 3.76422 15.8315 3.24472 15.698C3.26302 15.7257 1.91096 15.3521 1.91096 15.3521L1 17.5341L3.38793 18.1524C3.83217 18.2681 4.26752 18.3891 4.69608 18.5031L3.93669 21.6704L5.76958 22.1455L6.52166 19.0118C7.02234 19.153 7.50839 19.2833 7.98399 19.406L7.23453 22.525L9.06951 23L9.8289 19.8387C12.9579 20.4538 15.3108 20.2057 16.3012 17.2659C17.0993 14.8988 16.2615 13.5334 14.6152 12.6431C15.8141 12.3559 16.7172 11.5366 16.9582 9.84441ZM12.7656 15.9515C12.1985 18.3186 8.36186 17.0389 7.11798 16.7181L8.12563 12.522C9.3695 12.8445 13.3583 13.4829 12.7656 15.9515ZM13.3332 9.81021C12.8158 11.9634 9.62246 10.8694 8.58659 10.6012L9.50016 6.79547C10.536 7.06367 13.872 7.56422 13.3332 9.81021Z" fill="black" stroke="url(#paint0_linear_3668_3793)" stroke-width="1.00001" stroke-linejoin="round"/>
<defs>
<linearGradient id="paint0_linear_3668_3793" x1="1" y1="12" x2="17" y2="12" gradientUnits="userSpaceOnUse">
<stop stop-color="#88B4F5"/>
<stop offset="0.505208" stop-color="#88B4F5" stop-opacity="0.5"/>
<stop offset="1" stop-color="#88B4F5"/>
</linearGradient>
</defs>
</svg>
